<?xml version="1.0" encoding="UTF-8" standalone="no"?>
<!DOCTYPE svg PUBLIC "-//W3C//DTD SVG 1.1//EN"
 "http://www.w3.org/Graphics/SVG/1.1/DTD/svg11.dtd">
<!-- Generated by graphviz version 2.40.1 (20161225.0304)
 -->
<!-- Title: dependencies Pages: 1 -->
<svg width="4476pt" height="284pt"
 viewBox="0.00 0.00 4476.00 284.00" xmlns="http://www.w3.org/2000/svg" xmlns:xlink="http://www.w3.org/1999/xlink">
<g id="graph0" class="graph" transform="scale(1 1) rotate(0) translate(4 280)">
<title>dependencies</title>
<polygon fill="#ffffff" stroke="transparent" points="-4,4 -4,-280 4472,-280 4472,4 -4,4"/>
<text text-anchor="start" x="2213.0091" y="-42.4" font-family="sans-serif" font-weight="bold" font-size="14.00" fill="#000000">Legend</text>
<polygon fill="#ffffb3" stroke="transparent" points="2000,-10 2000,-30 2020,-30 2020,-10 2000,-10"/>
<text text-anchor="start" x="2023.629" y="-15.4" font-family="sans-serif" font-size="14.00" fill="#000000"> &#160;Declarations</text>
<polygon fill="#8dd3c7" stroke="transparent" points="2113,-10 2113,-30 2133,-30 2133,-10 2113,-10"/>
<text text-anchor="start" x="2136.7251" y="-15.4" font-family="sans-serif" font-size="14.00" fill="#000000"> &#160;Module</text>
<polygon fill="#80b1d3" stroke="transparent" points="2199,-10 2199,-30 2219,-30 2219,-10 2199,-10"/>
<text text-anchor="start" x="2222.7812" y="-15.4" font-family="sans-serif" font-size="14.00" fill="#000000"> &#160;Bootstrap</text>
<polygon fill="#fdb462" stroke="transparent" points="2296,-10 2296,-30 2316,-30 2316,-10 2296,-10"/>
<text text-anchor="start" x="2319.6732" y="-15.4" font-family="sans-serif" font-size="14.00" fill="#000000"> &#160;Providers</text>
<polygon fill="#fb8072" stroke="transparent" points="2392,-10 2392,-30 2412,-30 2412,-10 2392,-10"/>
<text text-anchor="start" x="2415.7258" y="-15.4" font-family="sans-serif" font-size="14.00" fill="#000000"> &#160;Exports</text>
<g id="clust1" class="cluster">
<title>cluster_AppModule</title>
<polygon fill="none" stroke="#000000" stroke-dasharray="1,5" points="8,-70 8,-268 4460,-268 4460,-70 8,-70"/>
</g>
<g id="clust2" class="cluster">
<title>cluster_AppModule_declarations</title>
<polygon fill="none" stroke="#000000" points="992,-78 992,-130 4452,-130 4452,-78 992,-78"/>
</g>
<g id="clust23" class="cluster">
<title>cluster_AppModule_bootstrap</title>
<polygon fill="none" stroke="#000000" points="2115,-208 2115,-260 2239,-260 2239,-208 2115,-208"/>
</g>
<g id="clust24" class="cluster">
<title>cluster_AppModule_providers</title>
<polygon fill="none" stroke="#000000" points="16,-78 16,-130 984,-130 984,-78 16,-78"/>
</g>
<!-- AppComponent -->
<g id="node1" class="node">
<title>AppComponent</title>
<polygon fill="#ffffb3" stroke="#000000" points="4443.9399,-122 4338.0601,-122 4338.0601,-86 4443.9399,-86 4443.9399,-122"/>
<text text-anchor="middle" x="4391" y="-99.8" font-family="Times,serif" font-size="14.00" fill="#000000">AppComponent</text>
</g>
<!-- AppModule -->
<g id="node19" class="node">
<title>AppModule</title>
<polygon fill="#8dd3c7" stroke="#000000" points="2218.6571,-187 2215.6571,-191 2194.6571,-191 2191.6571,-187 2135.3429,-187 2135.3429,-151 2218.6571,-151 2218.6571,-187"/>
<text text-anchor="middle" x="2177" y="-164.8" font-family="Times,serif" font-size="14.00" fill="#000000">AppModule</text>
</g>
<!-- AppComponent&#45;&gt;AppModule -->
<g id="edge1" class="edge">
<title>AppComponent&#45;&gt;AppModule</title>
<path fill="none" stroke="#000000" d="M4391,-122.1532C4391,-145.7566 4391,-184 4391,-184 4391,-184 2228.7635,-184 2228.7635,-184"/>
<polygon fill="#000000" stroke="#000000" points="2228.7635,-180.5001 2218.7635,-184 2228.7635,-187.5001 2228.7635,-180.5001"/>
</g>
<!-- DemoView1Component -->
<g id="node2" class="node">
<title>DemoView1Component</title>
<polygon fill="#ffffb3" stroke="#000000" points="4320.3627,-122 4167.6373,-122 4167.6373,-86 4320.3627,-86 4320.3627,-122"/>
<text text-anchor="middle" x="4244" y="-99.8" font-family="Times,serif" font-size="14.00" fill="#000000">DemoView1Component</text>
</g>
<!-- DemoView1Component&#45;&gt;AppModule -->
<g id="edge2" class="edge">
<title>DemoView1Component&#45;&gt;AppModule</title>
<path fill="none" stroke="#000000" d="M4244,-122.2479C4244,-145.0179 4244,-181 4244,-181 4244,-181 2228.7562,-181 2228.7562,-181"/>
<polygon fill="#000000" stroke="#000000" points="2228.7562,-177.5001 2218.7562,-181 2228.7562,-184.5001 2228.7562,-177.5001"/>
</g>
<!-- DemoView2Component -->
<g id="node3" class="node">
<title>DemoView2Component</title>
<polygon fill="#ffffb3" stroke="#000000" points="4149.3627,-122 3996.6373,-122 3996.6373,-86 4149.3627,-86 4149.3627,-122"/>
<text text-anchor="middle" x="4073" y="-99.8" font-family="Times,serif" font-size="14.00" fill="#000000">DemoView2Component</text>
</g>
<!-- DemoView2Component&#45;&gt;AppModule -->
<g id="edge3" class="edge">
<title>DemoView2Component&#45;&gt;AppModule</title>
<path fill="none" stroke="#000000" d="M4073,-122.2921C4073,-144.2057 4073,-178 4073,-178 4073,-178 2228.8103,-178 2228.8103,-178"/>
<polygon fill="#000000" stroke="#000000" points="2228.8104,-174.5001 2218.8103,-178 2228.8103,-181.5001 2228.8104,-174.5001"/>
</g>
<!-- DemoView3Component -->
<g id="node4" class="node">
<title>DemoView3Component</title>
<polygon fill="#ffffb3" stroke="#000000" points="3978.3627,-122 3825.6373,-122 3825.6373,-86 3978.3627,-86 3978.3627,-122"/>
<text text-anchor="middle" x="3902" y="-99.8" font-family="Times,serif" font-size="14.00" fill="#000000">DemoView3Component</text>
</g>
<!-- DemoView3Component&#45;&gt;AppModule -->
<g id="edge4" class="edge">
<title>DemoView3Component&#45;&gt;AppModule</title>
<path fill="none" stroke="#000000" d="M3902,-122.0267C3902,-142.7672 3902,-174 3902,-174 3902,-174 2228.786,-174 2228.786,-174"/>
<polygon fill="#000000" stroke="#000000" points="2228.786,-170.5001 2218.786,-174 2228.7859,-177.5001 2228.786,-170.5001"/>
</g>
<!-- DemoBindingEventInputOutputComponent -->
<g id="node5" class="node">
<title>DemoBindingEventInputOutputComponent</title>
<polygon fill="#ffffb3" stroke="#000000" points="3807.7589,-122 3546.2411,-122 3546.2411,-86 3807.7589,-86 3807.7589,-122"/>
<text text-anchor="middle" x="3677" y="-99.8" font-family="Times,serif" font-size="14.00" fill="#000000">DemoBindingEventInputOutputComponent</text>
</g>
<!-- DemoBindingEventInputOutputComponent&#45;&gt;AppModule -->
<g id="edge5" class="edge">
<title>DemoBindingEventInputOutputComponent&#45;&gt;AppModule</title>
<path fill="none" stroke="#000000" d="M3677,-122.308C3677,-142.1455 3677,-171 3677,-171 3677,-171 2228.6841,-171 2228.6841,-171"/>
<polygon fill="#000000" stroke="#000000" points="2228.6842,-167.5001 2218.6841,-171 2228.6841,-174.5001 2228.6842,-167.5001"/>
</g>
<!-- DemoViewchildViewChildrenComponent -->
<g id="node6" class="node">
<title>DemoViewchildViewChildrenComponent</title>
<polygon fill="#ffffb3" stroke="#000000" points="3528.6699,-122 3275.3301,-122 3275.3301,-86 3528.6699,-86 3528.6699,-122"/>
<text text-anchor="middle" x="3402" y="-99.8" font-family="Times,serif" font-size="14.00" fill="#000000">DemoViewchildViewChildrenComponent</text>
</g>
<!-- DemoViewchildViewChildrenComponent&#45;&gt;AppModule -->
<g id="edge6" class="edge">
<title>DemoViewchildViewChildrenComponent&#45;&gt;AppModule</title>
<path fill="none" stroke="#000000" d="M3402,-122.1686C3402,-141.0898 3402,-168 3402,-168 3402,-168 2228.8129,-168 2228.8129,-168"/>
<polygon fill="#000000" stroke="#000000" points="2228.8129,-164.5001 2218.8129,-168 2228.8129,-171.5001 2228.8129,-164.5001"/>
</g>
<!-- DemoContentchildContentChildrenComponent -->
<g id="node7" class="node">
<title>DemoContentchildContentChildrenComponent</title>
<polygon fill="#ffffb3" stroke="#000000" points="3257.6979,-122 2976.3021,-122 2976.3021,-86 3257.6979,-86 3257.6979,-122"/>
<text text-anchor="middle" x="3117" y="-99.8" font-family="Times,serif" font-size="14.00" fill="#000000">DemoContentchildContentChildrenComponent</text>
</g>
<!-- DemoContentchildContentChildrenComponent&#45;&gt;AppModule -->
<g id="edge7" class="edge">
<title>DemoContentchildContentChildrenComponent&#45;&gt;AppModule</title>
<path fill="none" stroke="#000000" d="M3117,-122.302C3117,-140.2699 3117,-165 3117,-165 3117,-165 2228.9092,-165 2228.9092,-165"/>
<polygon fill="#000000" stroke="#000000" points="2228.9093,-161.5001 2218.9092,-165 2228.9092,-168.5001 2228.9093,-161.5001"/>
</g>
<!-- DemoTemplateFormComponent -->
<g id="node8" class="node">
<title>DemoTemplateFormComponent</title>
<polygon fill="#ffffb3" stroke="#000000" points="2958.2464,-122 2759.7536,-122 2759.7536,-86 2958.2464,-86 2958.2464,-122"/>
<text text-anchor="middle" x="2859" y="-99.8" font-family="Times,serif" font-size="14.00" fill="#000000">DemoTemplateFormComponent</text>
</g>
<!-- DemoTemplateFormComponent&#45;&gt;AppModule -->
<g id="edge8" class="edge">
<title>DemoTemplateFormComponent&#45;&gt;AppModule</title>
<path fill="none" stroke="#000000" d="M2859,-122.0352C2859,-138.7344 2859,-161 2859,-161 2859,-161 2228.8912,-161 2228.8912,-161"/>
<polygon fill="#000000" stroke="#000000" points="2228.8912,-157.5001 2218.8912,-161 2228.8911,-164.5001 2228.8912,-157.5001"/>
</g>
<!-- DemoReactiveFormComponent -->
<g id="node9" class="node">
<title>DemoReactiveFormComponent</title>
<polygon fill="#ffffb3" stroke="#000000" points="2741.3543,-122 2546.6457,-122 2546.6457,-86 2741.3543,-86 2741.3543,-122"/>
<text text-anchor="middle" x="2644" y="-99.8" font-family="Times,serif" font-size="14.00" fill="#000000">DemoReactiveFormComponent</text>
</g>
<!-- DemoReactiveFormComponent&#45;&gt;AppModule -->
<g id="edge9" class="edge">
<title>DemoReactiveFormComponent&#45;&gt;AppModule</title>
<path fill="none" stroke="#000000" d="M2644,-122.2819C2644,-137.9478 2644,-158 2644,-158 2644,-158 2228.8541,-158 2228.8541,-158"/>
<polygon fill="#000000" stroke="#000000" points="2228.8542,-154.5001 2218.8541,-158 2228.8541,-161.5001 2228.8542,-154.5001"/>
</g>
<!-- DemoInputValidatorDirective -->
<g id="node10" class="node">
<title>DemoInputValidatorDirective</title>
<polygon fill="#ffffb3" stroke="#000000" points="2528.2142,-122 2343.7858,-122 2343.7858,-86 2528.2142,-86 2528.2142,-122"/>
<text text-anchor="middle" x="2436" y="-99.8" font-family="Times,serif" font-size="14.00" fill="#000000">DemoInputValidatorDirective</text>
</g>
<!-- DemoInputValidatorDirective&#45;&gt;AppModule -->
<g id="edge10" class="edge">
<title>DemoInputValidatorDirective&#45;&gt;AppModule</title>
<path fill="none" stroke="#000000" d="M2436,-122.1243C2436,-136.7832 2436,-155 2436,-155 2436,-155 2228.9007,-155 2228.9007,-155"/>
<polygon fill="#000000" stroke="#000000" points="2228.9007,-151.5001 2218.9007,-155 2228.9006,-158.5001 2228.9007,-151.5001"/>
</g>
<!-- DemoLowercasePipe -->
<g id="node11" class="node">
<title>DemoLowercasePipe</title>
<polygon fill="#ffffb3" stroke="#000000" points="2325.7227,-122 2190.2773,-122 2190.2773,-86 2325.7227,-86 2325.7227,-122"/>
<text text-anchor="middle" x="2258" y="-99.8" font-family="Times,serif" font-size="14.00" fill="#000000">DemoLowercasePipe</text>
</g>
<!-- DemoLowercasePipe&#45;&gt;AppModule -->
<g id="edge11" class="edge">
<title>DemoLowercasePipe&#45;&gt;AppModule</title>
<path fill="none" stroke="#000000" d="M2204.4835,-122.1061C2204.4835,-122.1061 2204.4835,-140.991 2204.4835,-140.991"/>
<polygon fill="#000000" stroke="#000000" points="2200.9836,-140.9909 2204.4835,-150.991 2207.9836,-140.991 2200.9836,-140.9909"/>
</g>
<!-- DemoAttributeDirective -->
<g id="node12" class="node">
<title>DemoAttributeDirective</title>
<polygon fill="#ffffb3" stroke="#000000" points="2172.3389,-122 2019.6611,-122 2019.6611,-86 2172.3389,-86 2172.3389,-122"/>
<text text-anchor="middle" x="2096" y="-99.8" font-family="Times,serif" font-size="14.00" fill="#000000">DemoAttributeDirective</text>
</g>
<!-- DemoAttributeDirective&#45;&gt;AppModule -->
<g id="edge12" class="edge">
<title>DemoAttributeDirective&#45;&gt;AppModule</title>
<path fill="none" stroke="#000000" d="M2153.7956,-122.1061C2153.7956,-122.1061 2153.7956,-140.991 2153.7956,-140.991"/>
<polygon fill="#000000" stroke="#000000" points="2150.2957,-140.9909 2153.7956,-150.991 2157.2957,-140.991 2150.2957,-140.9909"/>
</g>
<!-- DemoStructuralDirective -->
<g id="node13" class="node">
<title>DemoStructuralDirective</title>
<polygon fill="#ffffb3" stroke="#000000" points="2002.0002,-122 1843.9998,-122 1843.9998,-86 2002.0002,-86 2002.0002,-122"/>
<text text-anchor="middle" x="1923" y="-99.8" font-family="Times,serif" font-size="14.00" fill="#000000">DemoStructuralDirective</text>
</g>
<!-- DemoStructuralDirective&#45;&gt;AppModule -->
<g id="edge13" class="edge">
<title>DemoStructuralDirective&#45;&gt;AppModule</title>
<path fill="none" stroke="#000000" d="M1923,-122.1243C1923,-136.7832 1923,-155 1923,-155 1923,-155 2125.3415,-155 2125.3415,-155"/>
<polygon fill="#000000" stroke="#000000" points="2125.3415,-158.5001 2135.3415,-155 2125.3415,-151.5001 2125.3415,-158.5001"/>
</g>
<!-- DemoExportasDirective -->
<g id="node14" class="node">
<title>DemoExportasDirective</title>
<polygon fill="#ffffb3" stroke="#000000" points="1826.0576,-122 1673.9424,-122 1673.9424,-86 1826.0576,-86 1826.0576,-122"/>
<text text-anchor="middle" x="1750" y="-99.8" font-family="Times,serif" font-size="14.00" fill="#000000">DemoExportasDirective</text>
</g>
<!-- DemoExportasDirective&#45;&gt;AppModule -->
<g id="edge14" class="edge">
<title>DemoExportasDirective&#45;&gt;AppModule</title>
<path fill="none" stroke="#000000" d="M1750,-122.2819C1750,-137.9478 1750,-158 1750,-158 1750,-158 2125.28,-158 2125.28,-158"/>
<polygon fill="#000000" stroke="#000000" points="2125.28,-161.5001 2135.28,-158 2125.2799,-154.5001 2125.28,-161.5001"/>
</g>
<!-- DummyDirective -->
<g id="node15" class="node">
<title>DummyDirective</title>
<polygon fill="#ffffb3" stroke="#000000" points="1655.9706,-122 1542.0294,-122 1542.0294,-86 1655.9706,-86 1655.9706,-122"/>
<text text-anchor="middle" x="1599" y="-99.8" font-family="Times,serif" font-size="14.00" fill="#000000">DummyDirective</text>
</g>
<!-- DummyDirective&#45;&gt;AppModule -->
<g id="edge15" class="edge">
<title>DummyDirective&#45;&gt;AppModule</title>
<path fill="none" stroke="#000000" d="M1599,-122.0352C1599,-138.7344 1599,-161 1599,-161 1599,-161 2124.9661,-161 2124.9661,-161"/>
<polygon fill="#000000" stroke="#000000" points="2124.9661,-164.5001 2134.9661,-161 2124.966,-157.5001 2124.9661,-164.5001"/>
</g>
<!-- DummyComponent -->
<g id="node16" class="node">
<title>DummyComponent</title>
<polygon fill="#ffffb3" stroke="#000000" points="1523.7204,-122 1396.2796,-122 1396.2796,-86 1523.7204,-86 1523.7204,-122"/>
<text text-anchor="middle" x="1460" y="-99.8" font-family="Times,serif" font-size="14.00" fill="#000000">DummyComponent</text>
</g>
<!-- DummyComponent&#45;&gt;AppModule -->
<g id="edge16" class="edge">
<title>DummyComponent&#45;&gt;AppModule</title>
<path fill="none" stroke="#000000" d="M1460,-122.302C1460,-140.2699 1460,-165 1460,-165 1460,-165 2125.0889,-165 2125.0889,-165"/>
<polygon fill="#000000" stroke="#000000" points="2125.089,-168.5001 2135.0889,-165 2125.0889,-161.5001 2125.089,-168.5001"/>
</g>
<!-- DummyContainerComponent -->
<g id="node17" class="node">
<title>DummyContainerComponent</title>
<polygon fill="#ffffb3" stroke="#000000" points="1378.4283,-122 1195.5717,-122 1195.5717,-86 1378.4283,-86 1378.4283,-122"/>
<text text-anchor="middle" x="1287" y="-99.8" font-family="Times,serif" font-size="14.00" fill="#000000">DummyContainerComponent</text>
</g>
<!-- DummyContainerComponent&#45;&gt;AppModule -->
<g id="edge17" class="edge">
<title>DummyContainerComponent&#45;&gt;AppModule</title>
<path fill="none" stroke="#000000" d="M1287,-122.1686C1287,-141.0898 1287,-168 1287,-168 1287,-168 2125.2672,-168 2125.2672,-168"/>
<polygon fill="#000000" stroke="#000000" points="2125.2672,-171.5001 2135.2672,-168 2125.2671,-164.5001 2125.2672,-171.5001"/>
</g>
<!-- DemoElementrefComponent -->
<g id="node18" class="node">
<title>DemoElementrefComponent</title>
<polygon fill="#ffffb3" stroke="#000000" points="1177.7338,-122 1000.2662,-122 1000.2662,-86 1177.7338,-86 1177.7338,-122"/>
<text text-anchor="middle" x="1089" y="-99.8" font-family="Times,serif" font-size="14.00" fill="#000000">DemoElementrefComponent</text>
</g>
<!-- DemoElementrefComponent&#45;&gt;AppModule -->
<g id="edge18" class="edge">
<title>DemoElementrefComponent&#45;&gt;AppModule</title>
<path fill="none" stroke="#000000" d="M1089,-122.308C1089,-142.1455 1089,-171 1089,-171 1089,-171 2125.0158,-171 2125.0158,-171"/>
<polygon fill="#000000" stroke="#000000" points="2125.0158,-174.5001 2135.0158,-171 2125.0157,-167.5001 2125.0158,-174.5001"/>
</g>
<!-- AppComponent  -->
<g id="node20" class="node">
<title>AppComponent </title>
<polygon fill="#80b1d3" stroke="#000000" points="2231.439,-252 2122.561,-252 2122.561,-216 2231.439,-216 2231.439,-252"/>
<text text-anchor="middle" x="2177" y="-229.8" font-family="Times,serif" font-size="14.00" fill="#000000">AppComponent </text>
</g>
<!-- AppModule&#45;&gt;AppComponent  -->
<g id="edge19" class="edge">
<title>AppModule&#45;&gt;AppComponent </title>
<path fill="none" stroke="#000000" stroke-dasharray="1,5" d="M2177,-187.1061C2177,-187.1061 2177,-205.991 2177,-205.991"/>
<polygon fill="#000000" stroke="#000000" points="2173.5001,-205.9909 2177,-215.991 2180.5001,-205.991 2173.5001,-205.9909"/>
</g>
<!-- DemoDataCallService -->
<g id="node21" class="node">
<title>DemoDataCallService</title>
<ellipse fill="#fdb462" stroke="#000000" cx="878" cy="-104" rx="97.8266" ry="18"/>
<text text-anchor="middle" x="878" y="-99.8" font-family="Times,serif" font-size="14.00" fill="#000000">DemoDataCallService</text>
</g>
<!-- DemoDataCallService&#45;&gt;AppModule -->
<g id="edge20" class="edge">
<title>DemoDataCallService&#45;&gt;AppModule</title>
<path fill="none" stroke="#000000" d="M878,-122.0267C878,-142.7672 878,-174 878,-174 878,-174 2125.2512,-174 2125.2512,-174"/>
<polygon fill="#000000" stroke="#000000" points="2125.2512,-177.5001 2135.2512,-174 2125.2511,-170.5001 2125.2512,-177.5001"/>
</g>
<!-- DemoDataCallResolverService -->
<g id="node22" class="node">
<title>DemoDataCallResolverService</title>
<ellipse fill="#fdb462" stroke="#000000" cx="630" cy="-104" rx="132.4763" ry="18"/>
<text text-anchor="middle" x="630" y="-99.8" font-family="Times,serif" font-size="14.00" fill="#000000">DemoDataCallResolverService</text>
</g>
<!-- DemoDataCallResolverService&#45;&gt;AppModule -->
<g id="edge21" class="edge">
<title>DemoDataCallResolverService&#45;&gt;AppModule</title>
<path fill="none" stroke="#000000" d="M630,-122.2921C630,-144.2057 630,-178 630,-178 630,-178 2125.2212,-178 2125.2212,-178"/>
<polygon fill="#000000" stroke="#000000" points="2125.2213,-181.5001 2135.2212,-178 2125.2212,-174.5001 2125.2213,-181.5001"/>
</g>
<!-- DemoFormModelService -->
<g id="node23" class="node">
<title>DemoFormModelService</title>
<ellipse fill="#fdb462" stroke="#000000" cx="370" cy="-104" rx="109.9518" ry="18"/>
<text text-anchor="middle" x="370" y="-99.8" font-family="Times,serif" font-size="14.00" fill="#000000">DemoFormModelService</text>
</g>
<!-- DemoFormModelService&#45;&gt;AppModule -->
<g id="edge22" class="edge">
<title>DemoFormModelService&#45;&gt;AppModule</title>
<path fill="none" stroke="#000000" d="M370,-122.2479C370,-145.0179 370,-181 370,-181 370,-181 2124.9931,-181 2124.9931,-181"/>
<polygon fill="#000000" stroke="#000000" points="2124.9931,-184.5001 2134.9931,-181 2124.9931,-177.5001 2124.9931,-184.5001"/>
</g>
<!-- DemoFormGroupService -->
<g id="node24" class="node">
<title>DemoFormGroupService</title>
<ellipse fill="#fdb462" stroke="#000000" cx="133" cy="-104" rx="109.372" ry="18"/>
<text text-anchor="middle" x="133" y="-99.8" font-family="Times,serif" font-size="14.00" fill="#000000">DemoFormGroupService</text>
</g>
<!-- DemoFormGroupService&#45;&gt;AppModule -->
<g id="edge23" class="edge">
<title>DemoFormGroupService&#45;&gt;AppModule</title>
<path fill="none" stroke="#000000" d="M133,-122.1532C133,-145.7566 133,-184 133,-184 133,-184 2125.2441,-184 2125.2441,-184"/>
<polygon fill="#000000" stroke="#000000" points="2125.2441,-187.5001 2135.2441,-184 2125.2441,-180.5001 2125.2441,-187.5001"/>
</g>
</g>
</svg>
