<?xml version="1.0" encoding="UTF-8" standalone="no"?>
<!DOCTYPE svg PUBLIC "-//W3C//DTD SVG 1.1//EN"
 "http://www.w3.org/Graphics/SVG/1.1/DTD/svg11.dtd">
<!-- Generated by graphviz version 2.40.1 (20161225.0304)
 -->
<!-- Title: dependencies Pages: 1 -->
<svg width="504pt" height="211pt"
 viewBox="0.00 0.00 504.00 211.00" xmlns="http://www.w3.org/2000/svg" xmlns:xlink="http://www.w3.org/1999/xlink">
<g id="graph0" class="graph" transform="scale(1 1) rotate(0) translate(4 207)">
<title>dependencies</title>
<polygon fill="#ffffff" stroke="transparent" points="-4,4 -4,-207 500,-207 500,4 -4,4"/>
<text text-anchor="start" x="227.0091" y="-42.4" font-family="sans-serif" font-weight="bold" font-size="14.00" fill="#000000">Legend</text>
<polygon fill="#ffffb3" stroke="transparent" points="14,-10 14,-30 34,-30 34,-10 14,-10"/>
<text text-anchor="start" x="37.629" y="-15.4" font-family="sans-serif" font-size="14.00" fill="#000000"> &#160;Declarations</text>
<polygon fill="#8dd3c7" stroke="transparent" points="127,-10 127,-30 147,-30 147,-10 127,-10"/>
<text text-anchor="start" x="150.7251" y="-15.4" font-family="sans-serif" font-size="14.00" fill="#000000"> &#160;Module</text>
<polygon fill="#80b1d3" stroke="transparent" points="213,-10 213,-30 233,-30 233,-10 213,-10"/>
<text text-anchor="start" x="236.7812" y="-15.4" font-family="sans-serif" font-size="14.00" fill="#000000"> &#160;Bootstrap</text>
<polygon fill="#fdb462" stroke="transparent" points="310,-10 310,-30 330,-30 330,-10 310,-10"/>
<text text-anchor="start" x="333.6732" y="-15.4" font-family="sans-serif" font-size="14.00" fill="#000000"> &#160;Providers</text>
<polygon fill="#fb8072" stroke="transparent" points="406,-10 406,-30 426,-30 426,-10 406,-10"/>
<text text-anchor="start" x="429.7258" y="-15.4" font-family="sans-serif" font-size="14.00" fill="#000000"> &#160;Exports</text>
<g id="clust1" class="cluster">
<title>cluster_AppRoutingModule</title>
<polygon fill="none" stroke="#000000" stroke-dasharray="1,5" points="70.5,-70 70.5,-195 425.5,-195 425.5,-70 70.5,-70"/>
</g>
<g id="clust2" class="cluster">
<title>cluster_AppRoutingModule_declarations</title>
<polygon fill="none" stroke="#000000" points="78.5,-78 78.5,-130 417.5,-130 417.5,-78 78.5,-78"/>
</g>
<!-- DemoView1Component -->
<g id="node1" class="node">
<title>DemoView1Component</title>
<polygon fill="#ffffb3" stroke="#000000" points="409.8627,-122 257.1373,-122 257.1373,-86 409.8627,-86 409.8627,-122"/>
<text text-anchor="middle" x="333.5" y="-99.8" font-family="Times,serif" font-size="14.00" fill="#000000">DemoView1Component</text>
</g>
<!-- AppRoutingModule -->
<g id="node3" class="node">
<title>AppRoutingModule</title>
<polygon fill="#8dd3c7" stroke="#000000" points="311.7744,-187 308.7744,-191 287.7744,-191 284.7744,-187 183.2256,-187 183.2256,-151 311.7744,-151 311.7744,-187"/>
<text text-anchor="middle" x="247.5" y="-164.8" font-family="Times,serif" font-size="14.00" fill="#000000">AppRoutingModule</text>
</g>
<!-- DemoView1Component&#45;&gt;AppRoutingModule -->
<g id="edge1" class="edge">
<title>DemoView1Component&#45;&gt;AppRoutingModule</title>
<path fill="none" stroke="#000000" d="M284.4779,-122.1061C284.4779,-122.1061 284.4779,-140.991 284.4779,-140.991"/>
<polygon fill="#000000" stroke="#000000" points="280.978,-140.9909 284.4779,-150.991 287.978,-140.991 280.978,-140.9909"/>
</g>
<!-- DemoView2Component -->
<g id="node2" class="node">
<title>DemoView2Component</title>
<polygon fill="#ffffb3" stroke="#000000" points="238.8627,-122 86.1373,-122 86.1373,-86 238.8627,-86 238.8627,-122"/>
<text text-anchor="middle" x="162.5" y="-99.8" font-family="Times,serif" font-size="14.00" fill="#000000">DemoView2Component</text>
</g>
<!-- DemoView2Component&#45;&gt;AppRoutingModule -->
<g id="edge2" class="edge">
<title>DemoView2Component&#45;&gt;AppRoutingModule</title>
<path fill="none" stroke="#000000" d="M211.0221,-122.1061C211.0221,-122.1061 211.0221,-140.991 211.0221,-140.991"/>
<polygon fill="#000000" stroke="#000000" points="207.5222,-140.9909 211.0221,-150.991 214.5222,-140.991 207.5222,-140.9909"/>
</g>
</g>
</svg>
