<?xml version="1.0" encoding="UTF-8" standalone="no"?>
<!DOCTYPE svg PUBLIC "-//W3C//DTD SVG 1.1//EN"
 "http://www.w3.org/Graphics/SVG/1.1/DTD/svg11.dtd">
<!-- Generated by graphviz version 2.40.1 (20161225.0304)
 -->
<!-- Title: dependencies Pages: 1 -->
<svg width="4627pt" height="284pt"
 viewBox="0.00 0.00 4627.00 284.00" xmlns="http://www.w3.org/2000/svg" xmlns:xlink="http://www.w3.org/1999/xlink">
<g id="graph0" class="graph" transform="scale(1 1) rotate(0) translate(4 280)">
<title>dependencies</title>
<polygon fill="#ffffff" stroke="transparent" points="-4,4 -4,-280 4623,-280 4623,4 -4,4"/>
<text text-anchor="start" x="2288.5091" y="-42.4" font-family="sans-serif" font-weight="bold" font-size="14.00" fill="#000000">Legend</text>
<polygon fill="#ffffb3" stroke="transparent" points="2075.5,-10 2075.5,-30 2095.5,-30 2095.5,-10 2075.5,-10"/>
<text text-anchor="start" x="2099.129" y="-15.4" font-family="sans-serif" font-size="14.00" fill="#000000"> &#160;Declarations</text>
<polygon fill="#8dd3c7" stroke="transparent" points="2188.5,-10 2188.5,-30 2208.5,-30 2208.5,-10 2188.5,-10"/>
<text text-anchor="start" x="2212.2251" y="-15.4" font-family="sans-serif" font-size="14.00" fill="#000000"> &#160;Module</text>
<polygon fill="#80b1d3" stroke="transparent" points="2274.5,-10 2274.5,-30 2294.5,-30 2294.5,-10 2274.5,-10"/>
<text text-anchor="start" x="2298.2812" y="-15.4" font-family="sans-serif" font-size="14.00" fill="#000000"> &#160;Bootstrap</text>
<polygon fill="#fdb462" stroke="transparent" points="2371.5,-10 2371.5,-30 2391.5,-30 2391.5,-10 2371.5,-10"/>
<text text-anchor="start" x="2395.1732" y="-15.4" font-family="sans-serif" font-size="14.00" fill="#000000"> &#160;Providers</text>
<polygon fill="#fb8072" stroke="transparent" points="2467.5,-10 2467.5,-30 2487.5,-30 2487.5,-10 2467.5,-10"/>
<text text-anchor="start" x="2491.2258" y="-15.4" font-family="sans-serif" font-size="14.00" fill="#000000"> &#160;Exports</text>
<g id="clust1" class="cluster">
<title>cluster_AppModule</title>
<polygon fill="none" stroke="#000000" stroke-dasharray="1,5" points="8,-70 8,-268 4459,-268 4459,-70 8,-70"/>
</g>
<g id="clust2" class="cluster">
<title>cluster_AppModule_declarations</title>
<polygon fill="none" stroke="#000000" points="992,-78 992,-130 4451,-130 4451,-78 992,-78"/>
</g>
<g id="clust23" class="cluster">
<title>cluster_AppModule_bootstrap</title>
<polygon fill="none" stroke="#000000" points="2082,-208 2082,-260 2206,-260 2206,-208 2082,-208"/>
</g>
<g id="clust24" class="cluster">
<title>cluster_AppModule_providers</title>
<polygon fill="none" stroke="#000000" points="16,-78 16,-130 984,-130 984,-78 16,-78"/>
</g>
<g id="clust25" class="cluster">
<title>cluster_AppRoutingModule</title>
<polygon fill="none" stroke="#000000" stroke-dasharray="1,5" points="4467,-143 4467,-195 4611,-195 4611,-143 4467,-143"/>
</g>
<!-- AppComponent -->
<g id="node1" class="node">
<title>AppComponent</title>
<polygon fill="#ffffb3" stroke="#000000" points="4101.9399,-122 3996.0601,-122 3996.0601,-86 4101.9399,-86 4101.9399,-122"/>
<text text-anchor="middle" x="4049" y="-99.8" font-family="Times,serif" font-size="14.00" fill="#000000">AppComponent</text>
</g>
<!-- AppModule -->
<g id="node19" class="node">
<title>AppModule</title>
<polygon fill="#8dd3c7" stroke="#000000" points="2185.6571,-187 2182.6571,-191 2161.6571,-191 2158.6571,-187 2102.3429,-187 2102.3429,-151 2185.6571,-151 2185.6571,-187"/>
<text text-anchor="middle" x="2144" y="-164.8" font-family="Times,serif" font-size="14.00" fill="#000000">AppModule</text>
</g>
<!-- AppComponent&#45;&gt;AppModule -->
<g id="edge1" class="edge">
<title>AppComponent&#45;&gt;AppModule</title>
<path fill="none" stroke="#000000" d="M4049,-122.2921C4049,-144.2057 4049,-178 4049,-178 4049,-178 2196.0088,-178 2196.0088,-178"/>
<polygon fill="#000000" stroke="#000000" points="2196.0088,-174.5001 2186.0088,-178 2196.0088,-181.5001 2196.0088,-174.5001"/>
</g>
<!-- DemoView1Component -->
<g id="node2" class="node">
<title>DemoView1Component</title>
<polygon fill="#ffffb3" stroke="#000000" points="4443.3627,-122 4290.6373,-122 4290.6373,-86 4443.3627,-86 4443.3627,-122"/>
<text text-anchor="middle" x="4367" y="-99.8" font-family="Times,serif" font-size="14.00" fill="#000000">DemoView1Component</text>
</g>
<!-- DemoView1Component&#45;&gt;AppModule -->
<g id="edge2" class="edge">
<title>DemoView1Component&#45;&gt;AppModule</title>
<path fill="none" stroke="#000000" d="M4367,-122.1532C4367,-145.7566 4367,-184 4367,-184 4367,-184 2195.9333,-184 2195.9333,-184"/>
<polygon fill="#000000" stroke="#000000" points="2195.9333,-180.5001 2185.9333,-184 2195.9332,-187.5001 2195.9333,-180.5001"/>
</g>
<!-- AppRoutingModule -->
<g id="node25" class="node">
<title>AppRoutingModule</title>
<polygon fill="#8dd3c7" stroke="#000000" points="4603.2744,-187 4600.2744,-191 4579.2744,-191 4576.2744,-187 4474.7256,-187 4474.7256,-151 4603.2744,-151 4603.2744,-187"/>
<text text-anchor="middle" x="4539" y="-164.8" font-family="Times,serif" font-size="14.00" fill="#000000">AppRoutingModule</text>
</g>
<!-- DemoView1Component&#45;&gt;AppRoutingModule -->
<g id="edge24" class="edge">
<title>DemoView1Component&#45;&gt;AppRoutingModule</title>
<path fill="none" stroke="#000000" d="M4443.4434,-104C4489.3803,-104 4539,-104 4539,-104 4539,-104 4539,-140.8939 4539,-140.8939"/>
<polygon fill="#000000" stroke="#000000" points="4535.5001,-140.8938 4539,-150.8939 4542.5001,-140.8939 4535.5001,-140.8938"/>
</g>
<!-- DemoView2Component -->
<g id="node3" class="node">
<title>DemoView2Component</title>
<polygon fill="#ffffb3" stroke="#000000" points="4272.3627,-122 4119.6373,-122 4119.6373,-86 4272.3627,-86 4272.3627,-122"/>
<text text-anchor="middle" x="4196" y="-99.8" font-family="Times,serif" font-size="14.00" fill="#000000">DemoView2Component</text>
</g>
<!-- DemoView2Component&#45;&gt;AppModule -->
<g id="edge3" class="edge">
<title>DemoView2Component&#45;&gt;AppModule</title>
<path fill="none" stroke="#000000" d="M4170.5229,-122.2479C4170.5229,-145.0179 4170.5229,-181 4170.5229,-181 4170.5229,-181 2195.8616,-181 2195.8616,-181"/>
<polygon fill="#000000" stroke="#000000" points="2195.8617,-177.5001 2185.8616,-181 2195.8616,-184.5001 2195.8617,-177.5001"/>
</g>
<!-- DemoView2Component&#45;&gt;AppRoutingModule -->
<g id="edge25" class="edge">
<title>DemoView2Component&#45;&gt;AppRoutingModule</title>
<path fill="none" stroke="#000000" d="M4221.4771,-122.0511C4221.4771,-136.373 4221.4771,-154 4221.4771,-154 4221.4771,-154 4464.3618,-154 4464.3618,-154"/>
<polygon fill="#000000" stroke="#000000" points="4464.3618,-157.5001 4474.3618,-154 4464.3617,-150.5001 4464.3618,-157.5001"/>
</g>
<!-- DemoView3Component -->
<g id="node4" class="node">
<title>DemoView3Component</title>
<polygon fill="#ffffb3" stroke="#000000" points="3582.3627,-122 3429.6373,-122 3429.6373,-86 3582.3627,-86 3582.3627,-122"/>
<text text-anchor="middle" x="3506" y="-99.8" font-family="Times,serif" font-size="14.00" fill="#000000">DemoView3Component</text>
</g>
<!-- DemoView3Component&#45;&gt;AppModule -->
<g id="edge4" class="edge">
<title>DemoView3Component&#45;&gt;AppModule</title>
<path fill="none" stroke="#000000" d="M3506,-122.1061C3506,-141.3391 3506,-169 3506,-169 3506,-169 2195.8798,-169 2195.8798,-169"/>
<polygon fill="#000000" stroke="#000000" points="2195.8798,-165.5001 2185.8798,-169 2195.8797,-172.5001 2195.8798,-165.5001"/>
</g>
<!-- DemoBindingEventInputOutputComponent -->
<g id="node5" class="node">
<title>DemoBindingEventInputOutputComponent</title>
<polygon fill="#ffffb3" stroke="#000000" points="3411.7589,-122 3150.2411,-122 3150.2411,-86 3411.7589,-86 3411.7589,-122"/>
<text text-anchor="middle" x="3281" y="-99.8" font-family="Times,serif" font-size="14.00" fill="#000000">DemoBindingEventInputOutputComponent</text>
</g>
<!-- DemoBindingEventInputOutputComponent&#45;&gt;AppModule -->
<g id="edge5" class="edge">
<title>DemoBindingEventInputOutputComponent&#45;&gt;AppModule</title>
<path fill="none" stroke="#000000" d="M3281,-122.2667C3281,-140.5552 3281,-166 3281,-166 3281,-166 2195.8149,-166 2195.8149,-166"/>
<polygon fill="#000000" stroke="#000000" points="2195.8149,-162.5001 2185.8149,-166 2195.8148,-169.5001 2195.8149,-162.5001"/>
</g>
<!-- DemoViewchildViewChildrenComponent -->
<g id="node6" class="node">
<title>DemoViewchildViewChildrenComponent</title>
<polygon fill="#ffffb3" stroke="#000000" points="3132.6699,-122 2879.3301,-122 2879.3301,-86 3132.6699,-86 3132.6699,-122"/>
<text text-anchor="middle" x="3006" y="-99.8" font-family="Times,serif" font-size="14.00" fill="#000000">DemoViewchildViewChildrenComponent</text>
</g>
<!-- DemoViewchildViewChildrenComponent&#45;&gt;AppModule -->
<g id="edge6" class="edge">
<title>DemoViewchildViewChildrenComponent&#45;&gt;AppModule</title>
<path fill="none" stroke="#000000" d="M3006,-122.0225C3006,-139.3734 3006,-163 3006,-163 3006,-163 2195.8674,-163 2195.8674,-163"/>
<polygon fill="#000000" stroke="#000000" points="2195.8674,-159.5001 2185.8674,-163 2195.8673,-166.5001 2195.8674,-159.5001"/>
</g>
<!-- DemoContentchildContentChildrenComponent -->
<g id="node7" class="node">
<title>DemoContentchildContentChildrenComponent</title>
<polygon fill="#ffffb3" stroke="#000000" points="2861.6979,-122 2580.3021,-122 2580.3021,-86 2861.6979,-86 2861.6979,-122"/>
<text text-anchor="middle" x="2721" y="-99.8" font-family="Times,serif" font-size="14.00" fill="#000000">DemoContentchildContentChildrenComponent</text>
</g>
<!-- DemoContentchildContentChildrenComponent&#45;&gt;AppModule -->
<g id="edge7" class="edge">
<title>DemoContentchildContentChildrenComponent&#45;&gt;AppModule</title>
<path fill="none" stroke="#000000" d="M2721,-122.027C2721,-138.3976 2721,-160 2721,-160 2721,-160 2195.9612,-160 2195.9612,-160"/>
<polygon fill="#000000" stroke="#000000" points="2195.9612,-156.5001 2185.9612,-160 2195.9612,-163.5001 2195.9612,-156.5001"/>
</g>
<!-- DemoTemplateFormComponent -->
<g id="node8" class="node">
<title>DemoTemplateFormComponent</title>
<polygon fill="#ffffb3" stroke="#000000" points="2562.2464,-122 2363.7536,-122 2363.7536,-86 2562.2464,-86 2562.2464,-122"/>
<text text-anchor="middle" x="2463" y="-99.8" font-family="Times,serif" font-size="14.00" fill="#000000">DemoTemplateFormComponent</text>
</g>
<!-- DemoTemplateFormComponent&#45;&gt;AppModule -->
<g id="edge8" class="edge">
<title>DemoTemplateFormComponent&#45;&gt;AppModule</title>
<path fill="none" stroke="#000000" d="M2463,-122.2396C2463,-137.5706 2463,-157 2463,-157 2463,-157 2195.7037,-157 2195.7037,-157"/>
<polygon fill="#000000" stroke="#000000" points="2195.7037,-153.5001 2185.7037,-157 2195.7036,-160.5001 2195.7037,-153.5001"/>
</g>
<!-- DemoReactiveFormComponent -->
<g id="node9" class="node">
<title>DemoReactiveFormComponent</title>
<polygon fill="#ffffb3" stroke="#000000" points="2345.3543,-122 2150.6457,-122 2150.6457,-86 2345.3543,-86 2345.3543,-122"/>
<text text-anchor="middle" x="2248" y="-99.8" font-family="Times,serif" font-size="14.00" fill="#000000">DemoReactiveFormComponent</text>
</g>
<!-- DemoReactiveFormComponent&#45;&gt;AppModule -->
<g id="edge9" class="edge">
<title>DemoReactiveFormComponent&#45;&gt;AppModule</title>
<path fill="none" stroke="#000000" d="M2168.2006,-122.1061C2168.2006,-122.1061 2168.2006,-140.991 2168.2006,-140.991"/>
<polygon fill="#000000" stroke="#000000" points="2164.7006,-140.9909 2168.2006,-150.991 2171.7006,-140.991 2164.7006,-140.9909"/>
</g>
<!-- DemoInputValidatorDirective -->
<g id="node10" class="node">
<title>DemoInputValidatorDirective</title>
<polygon fill="#ffffb3" stroke="#000000" points="2132.2142,-122 1947.7858,-122 1947.7858,-86 2132.2142,-86 2132.2142,-122"/>
<text text-anchor="middle" x="2040" y="-99.8" font-family="Times,serif" font-size="14.00" fill="#000000">DemoInputValidatorDirective</text>
</g>
<!-- DemoInputValidatorDirective&#45;&gt;AppModule -->
<g id="edge10" class="edge">
<title>DemoInputValidatorDirective&#45;&gt;AppModule</title>
<path fill="none" stroke="#000000" d="M2117.2644,-122.1061C2117.2644,-122.1061 2117.2644,-140.991 2117.2644,-140.991"/>
<polygon fill="#000000" stroke="#000000" points="2113.7645,-140.9909 2117.2644,-150.991 2120.7645,-140.991 2113.7645,-140.9909"/>
</g>
<!-- DemoLowercasePipe -->
<g id="node11" class="node">
<title>DemoLowercasePipe</title>
<polygon fill="#ffffb3" stroke="#000000" points="1929.7227,-122 1794.2773,-122 1794.2773,-86 1929.7227,-86 1929.7227,-122"/>
<text text-anchor="middle" x="1862" y="-99.8" font-family="Times,serif" font-size="14.00" fill="#000000">DemoLowercasePipe</text>
</g>
<!-- DemoLowercasePipe&#45;&gt;AppModule -->
<g id="edge11" class="edge">
<title>DemoLowercasePipe&#45;&gt;AppModule</title>
<path fill="none" stroke="#000000" d="M1862,-122.1243C1862,-136.7832 1862,-155 1862,-155 1862,-155 2092.0863,-155 2092.0863,-155"/>
<polygon fill="#000000" stroke="#000000" points="2092.0863,-158.5001 2102.0863,-155 2092.0862,-151.5001 2092.0863,-158.5001"/>
</g>
<!-- DemoAttributeDirective -->
<g id="node12" class="node">
<title>DemoAttributeDirective</title>
<polygon fill="#ffffb3" stroke="#000000" points="1776.3389,-122 1623.6611,-122 1623.6611,-86 1776.3389,-86 1776.3389,-122"/>
<text text-anchor="middle" x="1700" y="-99.8" font-family="Times,serif" font-size="14.00" fill="#000000">DemoAttributeDirective</text>
</g>
<!-- DemoAttributeDirective&#45;&gt;AppModule -->
<g id="edge12" class="edge">
<title>DemoAttributeDirective&#45;&gt;AppModule</title>
<path fill="none" stroke="#000000" d="M1700,-122.2819C1700,-137.9478 1700,-158 1700,-158 1700,-158 2092.2296,-158 2092.2296,-158"/>
<polygon fill="#000000" stroke="#000000" points="2092.2296,-161.5001 2102.2296,-158 2092.2295,-154.5001 2092.2296,-161.5001"/>
</g>
<!-- DemoStructuralDirective -->
<g id="node13" class="node">
<title>DemoStructuralDirective</title>
<polygon fill="#ffffb3" stroke="#000000" points="1606.0002,-122 1447.9998,-122 1447.9998,-86 1606.0002,-86 1606.0002,-122"/>
<text text-anchor="middle" x="1527" y="-99.8" font-family="Times,serif" font-size="14.00" fill="#000000">DemoStructuralDirective</text>
</g>
<!-- DemoStructuralDirective&#45;&gt;AppModule -->
<g id="edge13" class="edge">
<title>DemoStructuralDirective&#45;&gt;AppModule</title>
<path fill="none" stroke="#000000" d="M1527,-122.0352C1527,-138.7344 1527,-161 1527,-161 1527,-161 2092.0762,-161 2092.0762,-161"/>
<polygon fill="#000000" stroke="#000000" points="2092.0762,-164.5001 2102.0762,-161 2092.0761,-157.5001 2092.0762,-164.5001"/>
</g>
<!-- DemoExportasDirective -->
<g id="node14" class="node">
<title>DemoExportasDirective</title>
<polygon fill="#ffffb3" stroke="#000000" points="1430.0576,-122 1277.9424,-122 1277.9424,-86 1430.0576,-86 1430.0576,-122"/>
<text text-anchor="middle" x="1354" y="-99.8" font-family="Times,serif" font-size="14.00" fill="#000000">DemoExportasDirective</text>
</g>
<!-- DemoExportasDirective&#45;&gt;AppModule -->
<g id="edge14" class="edge">
<title>DemoExportasDirective&#45;&gt;AppModule</title>
<path fill="none" stroke="#000000" d="M1354,-122.302C1354,-140.2699 1354,-165 1354,-165 1354,-165 2092.0839,-165 2092.0839,-165"/>
<polygon fill="#000000" stroke="#000000" points="2092.084,-168.5001 2102.0839,-165 2092.0839,-161.5001 2092.084,-168.5001"/>
</g>
<!-- DummyDirective -->
<g id="node15" class="node">
<title>DummyDirective</title>
<polygon fill="#ffffb3" stroke="#000000" points="1259.9706,-122 1146.0294,-122 1146.0294,-86 1259.9706,-86 1259.9706,-122"/>
<text text-anchor="middle" x="1203" y="-99.8" font-family="Times,serif" font-size="14.00" fill="#000000">DummyDirective</text>
</g>
<!-- DummyDirective&#45;&gt;AppModule -->
<g id="edge15" class="edge">
<title>DummyDirective&#45;&gt;AppModule</title>
<path fill="none" stroke="#000000" d="M1203,-122.1686C1203,-141.0898 1203,-168 1203,-168 1203,-168 2092.0462,-168 2092.0462,-168"/>
<polygon fill="#000000" stroke="#000000" points="2092.0462,-171.5001 2102.0462,-168 2092.0461,-164.5001 2092.0462,-171.5001"/>
</g>
<!-- DummyComponent -->
<g id="node16" class="node">
<title>DummyComponent</title>
<polygon fill="#ffffb3" stroke="#000000" points="1127.7204,-122 1000.2796,-122 1000.2796,-86 1127.7204,-86 1127.7204,-122"/>
<text text-anchor="middle" x="1064" y="-99.8" font-family="Times,serif" font-size="14.00" fill="#000000">DummyComponent</text>
</g>
<!-- DummyComponent&#45;&gt;AppModule -->
<g id="edge16" class="edge">
<title>DummyComponent&#45;&gt;AppModule</title>
<path fill="none" stroke="#000000" d="M1064,-122.308C1064,-142.1455 1064,-171 1064,-171 1064,-171 2092.3245,-171 2092.3245,-171"/>
<polygon fill="#000000" stroke="#000000" points="2092.3245,-174.5001 2102.3245,-171 2092.3244,-167.5001 2092.3245,-174.5001"/>
</g>
<!-- DummyContainerComponent -->
<g id="node17" class="node">
<title>DummyContainerComponent</title>
<polygon fill="#ffffb3" stroke="#000000" points="3978.4283,-122 3795.5717,-122 3795.5717,-86 3978.4283,-86 3978.4283,-122"/>
<text text-anchor="middle" x="3887" y="-99.8" font-family="Times,serif" font-size="14.00" fill="#000000">DummyContainerComponent</text>
</g>
<!-- DummyContainerComponent&#45;&gt;AppModule -->
<g id="edge17" class="edge">
<title>DummyContainerComponent&#45;&gt;AppModule</title>
<path fill="none" stroke="#000000" d="M3887,-122.2843C3887,-143.3211 3887,-175 3887,-175 3887,-175 2195.7932,-175 2195.7932,-175"/>
<polygon fill="#000000" stroke="#000000" points="2195.7932,-171.5001 2185.7932,-175 2195.7932,-178.5001 2195.7932,-171.5001"/>
</g>
<!-- DemoElementrefComponent -->
<g id="node18" class="node">
<title>DemoElementrefComponent</title>
<polygon fill="#ffffb3" stroke="#000000" points="3777.7338,-122 3600.2662,-122 3600.2662,-86 3777.7338,-86 3777.7338,-122"/>
<text text-anchor="middle" x="3689" y="-99.8" font-family="Times,serif" font-size="14.00" fill="#000000">DemoElementrefComponent</text>
</g>
<!-- DemoElementrefComponent&#45;&gt;AppModule -->
<g id="edge18" class="edge">
<title>DemoElementrefComponent&#45;&gt;AppModule</title>
<path fill="none" stroke="#000000" d="M3689,-122.2228C3689,-142.3652 3689,-172 3689,-172 3689,-172 2195.7248,-172 2195.7248,-172"/>
<polygon fill="#000000" stroke="#000000" points="2195.7248,-168.5001 2185.7248,-172 2195.7247,-175.5001 2195.7248,-168.5001"/>
</g>
<!-- AppComponent  -->
<g id="node20" class="node">
<title>AppComponent </title>
<polygon fill="#80b1d3" stroke="#000000" points="2198.439,-252 2089.561,-252 2089.561,-216 2198.439,-216 2198.439,-252"/>
<text text-anchor="middle" x="2144" y="-229.8" font-family="Times,serif" font-size="14.00" fill="#000000">AppComponent </text>
</g>
<!-- AppModule&#45;&gt;AppComponent  -->
<g id="edge19" class="edge">
<title>AppModule&#45;&gt;AppComponent </title>
<path fill="none" stroke="#000000" stroke-dasharray="1,5" d="M2144,-187.1061C2144,-187.1061 2144,-205.991 2144,-205.991"/>
<polygon fill="#000000" stroke="#000000" points="2140.5001,-205.9909 2144,-215.991 2147.5001,-205.991 2140.5001,-205.9909"/>
</g>
<!-- DemoDataCallService -->
<g id="node21" class="node">
<title>DemoDataCallService</title>
<ellipse fill="#fdb462" stroke="#000000" cx="878" cy="-104" rx="97.8266" ry="18"/>
<text text-anchor="middle" x="878" y="-99.8" font-family="Times,serif" font-size="14.00" fill="#000000">DemoDataCallService</text>
</g>
<!-- DemoDataCallService&#45;&gt;AppModule -->
<g id="edge20" class="edge">
<title>DemoDataCallService&#45;&gt;AppModule</title>
<path fill="none" stroke="#000000" d="M878,-122.0267C878,-142.7672 878,-174 878,-174 878,-174 2092.2385,-174 2092.2385,-174"/>
<polygon fill="#000000" stroke="#000000" points="2092.2385,-177.5001 2102.2385,-174 2092.2385,-170.5001 2092.2385,-177.5001"/>
</g>
<!-- DemoDataCallResolverService -->
<g id="node22" class="node">
<title>DemoDataCallResolverService</title>
<ellipse fill="#fdb462" stroke="#000000" cx="630" cy="-104" rx="132.4763" ry="18"/>
<text text-anchor="middle" x="630" y="-99.8" font-family="Times,serif" font-size="14.00" fill="#000000">DemoDataCallResolverService</text>
</g>
<!-- DemoDataCallResolverService&#45;&gt;AppModule -->
<g id="edge21" class="edge">
<title>DemoDataCallResolverService&#45;&gt;AppModule</title>
<path fill="none" stroke="#000000" d="M630,-122.2921C630,-144.2057 630,-178 630,-178 630,-178 2092.3237,-178 2092.3237,-178"/>
<polygon fill="#000000" stroke="#000000" points="2092.3238,-181.5001 2102.3237,-178 2092.3237,-174.5001 2092.3238,-181.5001"/>
</g>
<!-- DemoFormModelService -->
<g id="node23" class="node">
<title>DemoFormModelService</title>
<ellipse fill="#fdb462" stroke="#000000" cx="370" cy="-104" rx="109.9518" ry="18"/>
<text text-anchor="middle" x="370" y="-99.8" font-family="Times,serif" font-size="14.00" fill="#000000">DemoFormModelService</text>
</g>
<!-- DemoFormModelService&#45;&gt;AppModule -->
<g id="edge22" class="edge">
<title>DemoFormModelService&#45;&gt;AppModule</title>
<path fill="none" stroke="#000000" d="M370,-122.2479C370,-145.0179 370,-181 370,-181 370,-181 2092.3301,-181 2092.3301,-181"/>
<polygon fill="#000000" stroke="#000000" points="2092.3301,-184.5001 2102.3301,-181 2092.33,-177.5001 2092.3301,-184.5001"/>
</g>
<!-- DemoFormGroupService -->
<g id="node24" class="node">
<title>DemoFormGroupService</title>
<ellipse fill="#fdb462" stroke="#000000" cx="133" cy="-104" rx="109.372" ry="18"/>
<text text-anchor="middle" x="133" y="-99.8" font-family="Times,serif" font-size="14.00" fill="#000000">DemoFormGroupService</text>
</g>
<!-- DemoFormGroupService&#45;&gt;AppModule -->
<g id="edge23" class="edge">
<title>DemoFormGroupService&#45;&gt;AppModule</title>
<path fill="none" stroke="#000000" d="M133,-122.1532C133,-145.7566 133,-184 133,-184 133,-184 2091.9974,-184 2091.9974,-184"/>
<polygon fill="#000000" stroke="#000000" points="2091.9974,-187.5001 2101.9974,-184 2091.9974,-180.5001 2091.9974,-187.5001"/>
</g>
</g>
</svg>
